# xmcd
#
# Track frame offsets: 
#        150
#        1731
#        25657
#        46918
#        65225
#        80167
#        101398
#        109000
#        127519
#        131256
#        147073
#        165894
#        185891
#        203602
#        230092
#        250352
#        270104
#        287865
#        293435
#        312290
#        327755
#
# Disc length: 4647 seconds
#
# Revision: 0
# Processed by: cddbd v1.5.2PL0 Copyright (c) Steve Scherf et al.
# Submitted via: ExactAudioCopyFreeDBPlugin 1.0
#
DISCID=15122515
DTITLE=Brad Paisley - Wheel House (Deluxe Edition)
DYEAR=2013
DGENRE=Country
TTITLE0=Bon Voyage
TTITLE1=Southern Comfort Zone
TTITLE2=Beat This Summer
TTITLE3=Outstanding In Our Field
TTITLE4=Pressing on a Bruise
TTITLE5=I Can't Change the World
TTITLE6=[Untranslated]
TTITLE7=Karate
TTITLE8=Death of a Married Man
TTITLE9=Harvey Bodine
TTITLE10=Tin Can On A String
TTITLE11=Death Of A Single Man
TTITLE12=The Mona Lisa
TTITLE13=Accidental Racist
TTITLE14=Runaway Train
TTITLE15=Those Crazy Christians
TTITLE16=Officially Alive
TTITLE17=Yankee Doodle Dixie
TTITLE18=Facebook Friends
TTITLE19=Get Even
TTITLE20=Southern Comfort Zone
EXTD=
EXTT0=
EXTT1=
EXTT2=
EXTT3=
EXTT4=
EXTT5=
EXTT6=
EXTT7=
EXTT8=
EXTT9=
EXTT10=
EXTT11=
EXTT12=
EXTT13=
EXTT14=
EXTT15=
EXTT16=
EXTT17=
EXTT18=
EXTT19=
EXTT20=
PLAYORDER=
